<svg width="27" height="24" viewBox="0 0 27 24" fill="none" xmlns="http://www.w3.org/2000/svg">
<path d="M24.5455 3.816L10.5423 17.52L5.33864 12.432L7.06909 10.74L10.5423 14.136L22.815 2.136L24.5455 3.816ZM12.2727 21.6C6.86046 21.6 2.45455 17.292 2.45455 12C2.45455 6.708 6.86046 2.4 12.2727 2.4C14.1995 2.4 16.0036 2.952 17.5255 3.9L19.305 2.16C17.3045 0.804 14.8868 0 12.2727 0C5.49818 0 0 5.376 0 12C0 18.624 5.49818 24 12.2727 24C14.3959 24 16.3964 23.472 18.1391 22.536L16.2982 20.736C15.0709 21.288 13.7086 21.6 12.2727 21.6ZM20.8636 15.6H17.1818V18H20.8636V21.6H23.3182V18H27V15.6H23.3182V12H20.8636V15.6Z" fill="#D375B9"/>
</svg>
